<svg width="30" height="30" viewBox="0 0 512 512" fill="none" xmlns="http://www.w3.org/2000/svg">
<path d="M170.663 256.157C170.58 209.036 208.718 170.757 255.83 170.674C302.951 170.582 341.237 208.704 341.329 255.834C341.42 302.963 303.282 341.234 256.153 341.326C209.041 341.416 170.754 303.287 170.663 256.157ZM124.555 256.248C124.696 328.85 183.661 387.575 256.245 387.434C328.837 387.293 387.595 328.344 387.454 255.742C387.313 183.165 328.34 124.407 255.739 124.548C183.154 124.689 124.414 183.663 124.555 256.248ZM361.659 119.157C361.692 136.11 375.476 149.838 392.431 149.805C409.392 149.772 423.12 135.994 423.095 119.041C423.062 102.087 409.277 88.3511 392.315 88.3841C375.353 88.4171 361.626 102.202 361.659 119.157ZM152.963 464.557C128.005 463.47 114.452 459.323 105.42 455.848C93.4586 451.219 84.9237 445.67 75.9407 436.754C66.9747 427.804 61.4086 419.294 56.7386 407.357C53.2306 398.325 49.0086 384.788 47.8386 359.83C46.5696 332.848 46.2796 324.753 46.1556 256.398C46.0226 188.059 46.2716 179.964 47.4496 152.957C48.5186 128.015 52.6916 114.445 56.1586 105.421C60.7866 93.4441 66.3196 84.9251 75.2526 75.9421C84.2016 66.9601 92.7116 61.4101 104.656 56.7401C113.681 53.2151 127.217 49.0261 152.167 47.8401C179.165 46.5631 187.252 46.2891 255.59 46.1561C323.943 46.0241 332.038 46.2641 359.046 47.4511C383.986 48.5371 397.556 52.6681 406.573 56.1601C418.541 60.7881 427.076 66.3041 436.051 75.2541C445.025 84.2041 450.591 92.6971 455.261 104.666C458.785 113.666 462.975 127.219 464.153 152.16C465.438 179.159 465.729 187.255 465.853 255.593C465.985 323.948 465.736 332.044 464.551 359.034C463.464 383.992 459.325 397.554 455.842 406.595C451.213 418.547 445.681 427.082 436.739 436.066C427.798 445.015 419.288 450.597 407.336 455.267C398.327 458.784 384.775 462.981 359.842 464.167C332.844 465.436 324.756 465.726 256.394 465.851C188.056 465.983 179.97 465.726 152.963 464.557ZM149.977 1.77308C122.738 3.05808 104.134 7.42108 87.8756 13.7911C71.0466 20.3521 56.7806 29.1451 42.5896 43.3951C28.3806 57.6531 19.6546 71.9441 13.1436 88.7901C6.84065 105.089 2.56865 123.702 1.36565 150.958C0.171647 178.264 -0.102353 186.973 0.0306468 256.489C0.163647 325.997 0.469647 334.723 1.77165 362.036C3.07365 389.267 7.42065 407.864 13.7906 424.129C20.3596 440.959 29.1436 455.217 43.4016 469.417C57.6516 483.618 71.9516 492.335 88.8056 498.855C105.088 505.15 123.708 509.438 150.956 510.633C178.261 511.836 186.978 512.101 256.477 511.968C326.009 511.836 334.727 511.529 362.032 510.235C389.271 508.932 407.858 504.57 424.132 498.216C440.961 491.63 455.227 482.863 469.42 468.605C483.611 454.354 492.337 440.055 498.848 423.2C505.152 406.918 509.44 388.297 510.625 361.066C511.82 333.744 512.103 325.018 511.969 255.51C511.836 185.994 511.522 177.285 510.228 149.987C508.934 122.732 504.571 104.143 498.209 87.8691C491.632 71.0401 482.857 56.7901 468.607 42.5821C454.357 28.3901 440.057 19.6471 423.203 13.1531C406.913 6.84808 388.3 2.55208 361.053 1.37408C333.747 0.16408 325.03 -0.10192 255.506 0.0310798C185.999 0.16408 177.282 0.46208 149.977 1.77308Z" fill="#E6E2DF"/>
</svg>