<svg width="266" height="87" viewBox="0 0 266 87" fill="none" xmlns="http://www.w3.org/2000/svg">
<path d="M204.751 1.14785C204.525 10.0066 204.169 59.5951 204.251 68.6011C204.254 69.007 204.587 69.334 204.993 69.3277C209.496 69.2686 214.231 68.6992 219.296 68.4538C219.728 68.4343 220.088 68.7877 220.071 69.2197C219.983 71.7295 219.983 72.898 219.983 75.9184C219.983 79.1941 219.983 82.5682 220.074 85.5919C220.088 86.0077 219.751 86.3479 219.335 86.3479H186.772C186.363 86.3479 186.03 86.0206 186.033 85.6117C186.059 79.2139 186.376 60.976 186.376 43.3732C186.376 23.8166 186.376 9.43387 186.059 1.16094C186.043 0.745324 186.38 0.398438 186.798 0.398438H204.005C204.421 0.398438 204.754 0.738781 204.744 1.15112L204.751 1.14785Z" fill="#FF9FCD"/>
<path d="M241.253 34.6003V34.6561C248.48 34.6168 252.031 34.7902 259.209 34.2502C259.556 34.2241 259.847 34.4923 259.847 34.8394V49.0747C259.847 49.4119 259.565 49.6801 259.225 49.6639C252.247 49.3465 248.931 49.5295 241.848 49.4707C241.518 49.4707 241.253 49.7326 241.253 50.0599C241.253 53.0509 241.253 66.1408 241.253 69.0961C241.253 69.4234 241.521 69.6883 241.852 69.685C249.327 69.6001 257.051 68.1862 264.549 68.0653C264.879 68.0587 265.15 68.3269 265.15 68.6575V85.4881C265.15 85.8154 264.886 86.0773 264.555 86.0773H224.412C224.085 86.0773 223.817 85.8121 223.82 85.4848C223.928 70.1041 224.18 16.2121 223.719 0.605415C223.709 0.271617 223.977 0 224.311 0H264.552C264.879 0 265.147 0.265074 265.147 0.589053V16.271C265.147 16.5982 264.879 16.8666 264.549 16.8633C257.208 16.7717 249.314 15.9437 241.956 15.9765C241.629 15.9765 241.367 16.2415 241.367 16.5688C241.39 22.3677 241.25 28.8898 241.25 34.6036L241.253 34.6003Z" fill="#FF9FCD"/>
<path d="M26.4056 0.222656H0.552637C0.245255 0.222656 0.0032697 0.48446 0.0032697 0.801893C0.212555 12.4422 0.212555 25.2542 0.212555 43.168C0.212555 52.3279 0.212555 59.9725 0.186394 66.8707C0.160234 73.7692 0.111182 79.9315 0 86.1133H18.3809C18.6916 86.1133 18.9434 85.8385 18.9205 85.5079C18.6229 80.0362 18.4136 73.3636 18.309 65.7679C18.3025 65.4376 18.5641 65.1691 18.8845 65.1823C21.1441 65.287 23.08 65.3818 25.2023 65.3818C42.9587 65.3818 49.8648 57.2563 49.8648 32.4013C49.8648 7.54657 42.1837 0.222656 26.4056 0.222656ZM34.4957 45.9037C34.1687 47.9296 33.0895 49.8931 31.229 51.1561C30.0418 51.9613 28.7274 52.3474 27.4226 52.3474C25.0322 52.3474 22.6876 51.0448 21.3273 48.6823C19.2344 45.0496 17.9722 41.2534 17.57 37.3855C17.2659 34.4827 17.2659 31.5406 17.57 28.638C17.9657 24.8189 19.1985 21.0555 21.2455 17.4721L21.3011 17.3674C22.2854 15.6362 23.9139 13.8331 26.1408 13.3553C26.8209 13.2113 27.5403 13.1688 28.2205 13.3291C30.0158 13.748 30.9184 15.5086 31.252 17.1678C31.7717 19.8087 31.4122 22.4823 31.0981 25.1135C30.8431 27.2766 30.9379 29.4692 31.2158 31.6258C31.4711 33.6253 31.7553 35.5756 32.38 37.5064C32.9622 39.3064 34.0312 40.972 34.4174 42.8275C34.6332 43.8355 34.6526 44.8828 34.4924 45.9004L34.4957 45.9037Z" fill="#FF9FCD"/>
<path d="M126.857 85.2643C127.013 85.6471 126.467 86.3509 126.013 86.3509H107.491C107.004 86.4457 106.772 85.8991 106.736 85.6471C106.095 80.9968 105.82 76.3957 104.722 71.6767C103.306 65.5768 101.157 55.4155 98.188 49.9441C97.3281 48.3601 94.6759 49.2076 94.7186 50.9716C94.8887 57.9028 95.1143 69.6577 95.1502 74.4223C95.245 80.7025 95.1502 79.5931 95.317 85.5556C95.3268 86.0104 94.9246 86.3803 94.4275 86.3803H76.3802C75.8799 86.3803 75.4743 86.0104 75.4907 85.5556C75.6868 79.6225 75.5624 80.7025 75.6608 74.4223C75.7131 66.6928 75.991 51.8551 76.0072 43.4446V43.4218C75.991 35.0113 75.7098 20.1771 75.6608 12.4441C75.5595 6.16414 75.6835 7.24408 75.4907 1.311C75.4743 0.856123 75.8831 0.486328 76.3802 0.486328H94.4275C94.9246 0.486328 95.3268 0.856123 95.317 1.311C95.1535 7.27354 95.245 6.16414 95.1502 12.4441C95.1143 17.2056 94.8887 28.9605 94.7186 35.8951C94.6858 37.2433 96.4124 37.9402 97.534 37.3252C99.1005 36.4645 99.6041 34.6318 100.104 33.1558C101.39 29.3532 102.802 25.5473 103.558 21.6203C104.774 16.4301 105.768 11.1908 106.239 5.89579C106.376 4.3348 106.517 2.77381 106.736 1.21937C106.772 0.96739 107.004 0.420877 107.491 0.515782H126.013C126.467 0.515782 127.013 1.21937 126.857 1.60226C125.526 4.86169 120.944 33.1003 113.051 43.2877C113.024 43.3237 112.995 43.3957 112.975 43.4383C112.995 43.4806 113.024 43.5493 113.051 43.5853C120.948 53.7727 125.526 82.0114 126.857 85.2709V85.2643Z" fill="#FF9FCD"/>
<path d="M182.318 85.2643C182.475 85.6471 181.929 86.3509 181.474 86.3509H162.952C162.465 86.4457 162.233 85.8991 162.197 85.6471C161.556 80.9968 161.281 76.3957 160.183 71.6767C158.767 65.5768 156.618 55.4155 153.649 49.9441C152.789 48.3601 150.137 49.2076 150.18 50.9716C150.35 57.9028 150.575 69.6577 150.611 74.4223C150.706 80.7025 150.611 79.5931 150.778 85.5556C150.788 86.0104 150.385 86.3803 149.888 86.3803H131.841C131.341 86.3803 130.935 86.0104 130.952 85.5556C131.148 79.6225 131.024 80.7025 131.122 74.4223C131.174 66.6928 131.452 51.8551 131.468 43.4446V43.4218C131.452 35.0113 131.171 20.1771 131.122 12.4441C131.02 6.16414 131.145 7.24408 130.952 1.311C130.935 0.856123 131.344 0.486328 131.841 0.486328H149.888C150.385 0.486328 150.788 0.856123 150.778 1.311C150.614 7.27354 150.706 6.16414 150.611 12.4441C150.575 17.2056 150.35 28.9605 150.18 35.8951C150.147 37.2433 151.874 37.9402 152.995 37.3252C154.561 36.4645 155.065 34.6318 155.565 33.1558C156.85 29.3532 158.263 25.5473 159.019 21.6203C160.235 16.4301 161.229 11.1908 161.7 5.89579C161.837 4.3348 161.978 2.77381 162.197 1.21937C162.233 0.96739 162.465 0.420877 162.952 0.515782H181.474C181.929 0.515782 182.475 1.21937 182.318 1.60226C180.987 4.86169 176.405 33.1003 168.511 43.2877C168.485 43.3237 168.456 43.3957 168.436 43.4383C168.456 43.4806 168.485 43.5493 168.511 43.5853C176.409 53.7727 180.987 82.0114 182.318 85.2709V85.2643Z" fill="#FF9FCD"/>
<path d="M182.318 85.2643C182.475 85.6471 181.929 86.3509 181.474 86.3509H162.952C162.465 86.4457 162.233 85.8991 162.197 85.6471C161.556 80.9968 161.281 76.3957 160.183 71.6767C158.767 65.5768 156.618 55.4155 153.649 49.9441C152.789 48.3601 150.137 49.2076 150.18 50.9716C150.35 57.9028 150.575 69.6577 150.611 74.4223C150.706 80.7025 150.611 79.5931 150.778 85.5556C150.788 86.0104 150.385 86.3803 149.888 86.3803H131.841C131.341 86.3803 130.935 86.0104 130.952 85.5556C131.148 79.6225 131.024 80.7025 131.122 74.4223C131.174 66.6928 131.452 51.8551 131.468 43.4446V43.4218C131.452 35.0113 131.171 20.1771 131.122 12.4441C131.02 6.16414 131.145 7.24408 130.952 1.311C130.935 0.856123 131.344 0.486328 131.841 0.486328H149.888C150.385 0.486328 150.788 0.856123 150.778 1.311C150.614 7.27354 150.706 6.16414 150.611 12.4441C150.575 17.2056 150.35 28.9605 150.18 35.8951C150.147 37.2433 151.874 37.9402 152.995 37.3252C154.561 36.4645 155.065 34.6318 155.565 33.1558C156.85 29.3532 158.263 25.5473 159.019 21.6203C160.235 16.4301 161.229 11.1908 161.7 5.89579C161.837 4.3348 161.978 2.77381 162.197 1.21937C162.233 0.96739 162.465 0.420877 162.952 0.515782H181.474C181.929 0.515782 182.475 1.21937 182.318 1.60226C180.987 4.86169 176.405 33.1003 168.511 43.2877C168.485 43.3237 168.456 43.3957 168.436 43.4383C168.456 43.4806 168.485 43.5493 168.511 43.5853C176.409 53.7727 180.987 82.0114 182.318 85.2709V85.2643Z" fill="#FF9FCD"/>
<path d="M70.611 86.383H54.4571C53.9206 86.383 53.4824 86.0392 53.4824 85.6105V79.2061C53.4824 76.7386 53.4989 74.1175 53.5413 71.3455C53.5808 68.5738 53.6002 65.5861 53.6002 62.3887V41.7784C53.6002 38.5483 53.5808 35.5639 53.5413 32.8216C53.5022 30.079 53.4824 27.4742 53.4824 25.0067V18.6024C53.4824 18.177 53.9176 17.8301 54.4571 17.8301H70.611C71.1571 17.8301 71.5985 18.1868 71.5854 18.6188C71.5268 20.6347 71.4972 22.7323 71.4972 24.9118C71.4972 27.3793 71.4775 30.0169 71.4383 32.8183C71.3992 35.6227 71.3794 38.6236 71.3794 41.821V62.2513C71.3794 65.419 71.3959 68.407 71.4383 71.2081C71.4775 74.0128 71.4972 76.6471 71.4972 79.1146C71.4972 81.3106 71.5268 83.4703 71.5887 85.5943C71.6018 86.0263 71.1636 86.383 70.6176 86.383H70.611Z" fill="#FF9FCD"/>
<path d="M70.5513 0.486328H54.5181C53.9042 0.486328 53.4062 0.984481 53.4062 1.59899V11.0631C53.4062 11.6776 53.9042 12.1758 54.5181 12.1758H70.5513C71.1652 12.1758 71.6631 11.6776 71.6631 11.0631V1.59899C71.6631 0.984481 71.1652 0.486328 70.5513 0.486328Z" fill="#FF9FCD"/>
</svg>
