
<svg width="30" height="30" viewBox="0 0 1000 1000" fill="none" xmlns="http://www.w3.org/2000/svg">
<path fill-rule="evenodd" clip-rule="evenodd" d="M906.25 0H93.75C42.19 0 0 42.19 0 93.75V906.24C0 957.81 42.19 999.99 93.75 999.99L906.25 1000C957.81 1000 1000 957.81 1000 906.25V93.75C1000 42.19 957.81 0 906.25 0ZM684.02 319.72C651.6 298.59 628.21 264.76 620.91 225.34C619.34 216.83 618.46 208.06 618.46 199.09H515L514.83 613.74C513.09 660.17 474.87 697.44 428.03 697.44C413.46 697.44 399.76 693.81 387.68 687.45C360 672.88 341.05 643.87 341.05 610.48C341.05 562.52 380.07 523.5 428.02 523.5C436.97 523.5 445.56 524.98 453.68 527.51V421.89C445.27 420.74 436.73 420.03 428.02 420.03C323.01 420.03 237.59 505.46 237.59 610.48C237.59 674.9 269.77 731.92 318.89 766.4C349.82 788.12 387.46 800.91 428.03 800.91C533.04 800.91 618.46 715.48 618.46 610.48V400.21C659.04 429.33 708.76 446.49 762.41 446.49V343.03C733.52 343.03 706.61 334.44 684.02 319.72Z" fill="#E6E2DF"/>
</svg>
